<mxfile host="app.diagrams.net" modified="2024-02-23T15:18:35.171Z" agent="Mozilla/5.0 (Windows NT 10.0; Win64; x64) AppleWebKit/537.36 (KHTML, like Gecko) Chrome/121.0.0.0 Safari/537.36" version="23.1.6" etag="hNdd-fZO04nzARGmVqGW" type="github">
  <diagram name="Page-1" id="yDSFX3HHqVcPCkMCTX4j">
    <mxGraphModel>
      <root>
        <mxCell id="0" />
        <mxCell id="1" parent="0" />
      </root>
    </mxGraphModel>
  </diagram>
</mxfile>
